<svg width="240" height="78" viewBox="0 0 240 78" fill="none" xmlns="http://www.w3.org/2000/svg">
            <path d="M74.1949 54.3781C73.1157 54.3781 72.3636 53.9656 71.9365 53.1365C71.5136 52.3094 71.3032 51.1615 71.3032 49.6948C71.3032 49.1573 71.3407 48.3448 71.4199 47.2615L71.9365 39.6281L73.0365 25.6781V25.5615C73.0365 25.2573 72.9199 24.9865 72.6865 24.7531C72.4574 24.5198 72.1907 24.4031 71.8865 24.4031H64.7615C64.0657 24.4031 63.6824 24.7511 63.6115 25.4448L62.1615 39.2198C61.8115 42.7323 61.6199 45.7406 61.5865 48.2448V50.1031C61.5865 52.1865 61.6615 53.7281 61.8115 54.7281C62.1615 57.9281 63.1824 60.3011 64.8782 61.8448C66.499 63.3906 69.3365 64.1615 73.3865 64.1615C78.5199 64.1615 82.4365 62.6365 85.1365 59.5865C86.8303 57.6198 88.0053 55.0761 88.6615 51.9531C89.1657 49.2927 89.4199 46.4365 89.4199 43.3865V39.5698L89.9365 25.6198C89.9365 25.3156 89.8199 25.0365 89.5865 24.7865C89.3574 24.5323 89.0886 24.4031 88.7782 24.4031H81.6615C80.9282 24.4031 80.5407 24.7698 80.5032 25.5031L79.8115 39.2781V39.3365C79.6553 42.4594 79.5199 44.8115 79.4032 46.3948L79.2282 48.5948C79.2282 48.7511 79.172 49.1761 79.0615 49.8698C78.8282 51.299 78.372 52.4073 77.6949 53.1948C77.022 53.9844 75.8553 54.3781 74.1949 54.3781ZM88.5449 27.4198C88.4324 27.999 88.3782 28.4198 88.3782 28.6865C88.3782 28.6865 88.3865 28.699 88.4032 28.7198C88.424 28.7365 88.4365 28.7448 88.4365 28.7448C88.4365 28.7844 88.4532 28.8031 88.4865 28.8031H87.8532L87.7949 28.1115V27.4198C87.7949 27.0698 87.774 26.8573 87.7365 26.7781V26.4365C87.7365 26.3198 87.774 26.1448 87.8532 25.9115C87.9303 25.6781 88.047 25.5615 88.2032 25.5615C88.5074 25.5615 88.649 25.6906 88.6282 25.9448C88.6115 26.1948 88.6032 26.3406 88.6032 26.3781V26.6031L88.5449 27.4198ZM63.8365 33.0865C63.8365 32.9698 63.8949 32.8531 64.0115 32.7365L64.1282 32.3948L64.0699 32.0448L64.0115 31.6365L63.8949 31.3531L63.7782 31.0615L63.8949 30.6531L64.0699 30.0198C64.0699 29.9823 64.0303 29.924 63.9532 29.8448L63.8949 29.6698C63.8949 29.6323 63.9324 29.5761 64.0115 29.5031L64.0699 28.7448C64.147 28.6677 64.1865 28.6094 64.1865 28.5698C64.224 28.5323 64.224 28.4365 64.1865 28.2865C64.3407 28.1323 64.4199 27.9948 64.4199 27.8781V27.4781C64.3803 27.324 64.3303 27.199 64.2699 27.1031C64.2136 27.0031 64.1282 26.9156 64.0115 26.8365C64.2053 26.8365 64.3032 26.8177 64.3032 26.7781C64.3803 26.7011 64.4574 26.6615 64.5365 26.6615H64.8199L64.4782 34.0115C64.3615 34.2073 64.224 34.3427 64.0699 34.4198V34.5365C64.147 34.5365 64.1865 34.5573 64.1865 34.5948C64.2636 34.5948 64.3407 34.5573 64.4199 34.4781C64.4199 34.7073 64.3615 34.9365 64.2449 35.1698C64.1282 35.3261 64.0303 35.4031 63.9532 35.4031C63.9532 35.3261 63.9136 35.2865 63.8365 35.2865L63.7782 35.1698L63.8365 33.0865ZM64.1865 40.2615C63.9136 40.224 63.6824 40.1073 63.4949 39.9115L63.5532 39.6865L63.7782 39.6281L64.1865 39.5698V40.2615ZM82.4699 39.9698C82.4303 40.0094 82.399 40.049 82.3782 40.0865C82.3615 40.1261 82.3324 40.1448 82.2949 40.1448C82.2949 40.1448 82.2865 40.1573 82.2699 40.1781C82.2532 40.1948 82.2449 40.2031 82.2449 40.2031C82.1657 40.2031 82.1282 40.1656 82.1282 40.0865V39.9115L82.4699 39.9698ZM64.0699 41.9948C64.0699 42.3448 63.9324 42.5198 63.6615 42.5198C63.549 42.5198 63.4553 42.4615 63.3782 42.3448C63.4157 42.1906 63.647 42.0177 64.0699 41.8281V41.9948ZM83.9199 45.6448C83.9574 45.7615 83.9386 45.8406 83.8615 45.8781H83.3949L83.5115 45.6448H83.9199ZM82.7032 47.4948C82.6636 47.5344 82.6053 47.5531 82.5282 47.5531C82.5282 47.4761 82.4699 47.4177 82.3532 47.3781C82.4303 47.3781 82.4699 47.3594 82.4699 47.3198H82.5865C82.7032 47.3198 82.7803 47.3406 82.8199 47.3781L82.7032 47.4948ZM81.6032 51.8365L81.7782 51.7198V51.8365L81.6032 51.9531V51.8365ZM82.4115 52.4115H82.5865L82.5282 52.6448H82.3532L82.4115 52.4115ZM78.7115 54.2698C78.749 54.3823 78.749 54.4573 78.7115 54.4948H78.1865L78.3032 54.2698H78.7115ZM75.1782 55.0198C75.0657 55.2531 74.9803 55.3906 74.9199 55.4281C74.8636 55.4615 74.7386 55.4781 74.5449 55.4781H74.2532C74.024 55.4781 73.872 55.3656 73.7949 55.1365C73.7949 55.099 73.8532 55.0198 73.9699 54.9031C74.2365 54.9031 74.447 54.9156 74.6032 54.9365C74.7574 54.9531 74.874 54.9615 74.9532 54.9615L75.1782 55.0198ZM76.6865 55.1365L76.7449 54.9615L76.9199 55.0198L76.8032 55.1948L76.6865 55.1365ZM76.6282 57.0448L76.6865 56.0031H76.8615L76.6865 57.0448H76.6282ZM72.7532 56.5781C72.7532 56.5406 72.8282 56.4448 72.9782 56.2948C72.9782 56.2948 73.0365 56.3344 73.1532 56.4115C73.2699 56.4844 73.3657 56.599 73.4449 56.7531L72.8115 56.8115L72.7532 56.5781Z" fill="#FF725E"/>
            <path d="M138.649 42.7002C138.582 42.5627 138.39 42.3815 138.074 42.1586C137.757 41.9315 137.599 41.7961 137.599 41.7502C137.599 41.6565 137.544 41.5252 137.44 41.3586C137.34 41.1877 137.244 41.0336 137.157 40.9002C136.974 40.7169 137.094 40.1294 137.524 39.1336C137.957 38.1398 138.534 36.9648 139.257 35.6086C139.394 35.4711 139.569 35.2315 139.782 34.8919C139.999 34.5544 140.14 34.3627 140.207 34.3169C140.207 34.2294 140.24 34.1461 140.307 34.0669C140.374 33.9836 140.453 33.9419 140.549 33.9419L140.815 33.4002C140.909 33.1961 141.351 32.7086 142.14 31.9419C142.934 31.1752 143.557 30.6565 144.007 30.3836C144.434 30.0898 144.899 29.9419 145.399 29.9419C145.942 29.9419 146.407 30.1002 146.79 30.4169L147.707 31.1919C148.384 31.7586 148.767 32.0877 148.857 32.1752L150.115 33.3002L149.54 34.9919C149.334 35.6044 149.232 36.1815 149.232 36.7252C149.232 37.5877 149.467 38.3898 149.94 39.1336C150.057 39.3836 150.209 39.5794 150.399 39.7169C150.592 39.8502 150.849 39.9398 151.165 39.9836C151.665 40.0731 151.915 40.3211 151.915 40.7252C151.915 41.2252 151.824 41.6002 151.64 41.8502C151.457 42.1002 151.242 42.2586 150.999 42.3252C150.636 42.3711 150.386 42.3919 150.249 42.3919C149.592 42.3919 148.992 42.2231 148.449 41.8836C147.909 41.5461 147.434 40.9669 147.024 40.1502C146.934 40.0169 146.815 39.7711 146.665 39.4086C146.519 39.0419 146.436 38.7919 146.415 38.6586C146.259 38.8877 145.999 39.1815 145.632 39.5419C143.303 41.8919 141.417 43.0669 139.974 43.0669C139.474 43.0669 139.032 42.9461 138.649 42.7002ZM140.515 39.8836C140.876 39.9294 141.576 39.5211 142.615 38.6586C142.726 38.5711 142.849 38.4648 142.982 38.3419C143.119 38.2148 143.269 38.0836 143.432 37.9502C144.065 37.4294 144.557 36.9919 144.907 36.6419C145.257 36.2919 145.611 35.8669 145.974 35.3669L146.724 34.1502C146.494 33.6502 146.29 33.3169 146.107 33.1502C145.928 32.9794 145.749 32.8919 145.565 32.8919C145.115 32.8919 144.551 33.2961 143.874 34.1002C143.194 34.9002 142.382 36.1148 141.432 37.7419C141.182 38.1481 140.976 38.5731 140.815 39.0169C140.659 39.4565 140.559 39.7461 140.515 39.8836Z" fill="#FF725E"/>
            <path d="M120.043 56.8377C120.153 56.9877 120.209 57.1793 120.209 57.4127C120.209 57.7627 120.018 58.071 119.634 58.3377L113.268 62.5043C113.039 62.7002 112.73 62.7564 112.343 62.6793C111.959 62.5627 111.709 62.3522 111.593 62.046C110.086 58.7252 109.064 56.6418 108.526 55.796V55.7377C107.443 53.8106 106.611 52.3627 106.034 51.396L105.051 49.7793L101.809 50.646L101.634 61.1793C101.634 61.946 101.251 62.3293 100.484 62.3293H93.3594C93.0135 62.3293 92.7385 62.2168 92.526 61.9877C92.3156 61.7543 92.2094 61.4668 92.2094 61.121L94.576 25.296C94.6135 24.6793 94.9427 24.3127 95.5594 24.196L104.301 23.096H104.359L105.976 22.9293C107.52 22.7752 108.718 22.696 109.568 22.696C111.261 22.696 112.728 22.8502 113.968 23.1543C116.161 23.621 117.836 24.8002 118.993 26.6877C120.153 28.5772 120.734 30.7939 120.734 33.3377C120.734 35.271 120.405 37.221 119.751 39.1877C119.095 41.0377 118.034 42.7168 116.568 44.221C115.678 45.0335 114.926 45.6502 114.309 46.071L120.043 56.8377ZM107.484 26.1043V25.996H106.959V26.1043H107.484ZM107.018 26.5127V26.6877H107.309C107.309 26.6502 107.347 26.5918 107.426 26.5127L107.484 26.4543H107.076L107.018 26.5127ZM109.909 26.746C109.909 26.7085 109.872 26.6877 109.801 26.6877C109.722 26.6877 109.684 26.6502 109.684 26.571V26.8627L109.909 26.746ZM108.868 26.9793L108.984 26.8627H108.868L108.759 26.9793H108.868ZM107.659 27.0877C107.73 27.0877 107.768 27.1085 107.768 27.146C107.768 27.1856 107.786 27.2043 107.826 27.2043C107.903 27.2043 107.943 27.1856 107.943 27.146V27.0877H107.659ZM106.443 27.3793C106.209 27.5752 106.17 27.7689 106.326 27.9627H106.734V27.9043C106.734 27.7502 106.636 27.5752 106.443 27.3793ZM112.634 27.3793C112.595 27.4189 112.603 27.4772 112.659 27.5543C112.72 27.6335 112.789 27.671 112.868 27.671C112.905 27.671 112.926 27.6335 112.926 27.5543C112.926 27.5543 112.943 27.546 112.976 27.5293C113.014 27.5085 113.034 27.4772 113.034 27.4377L112.634 27.3793ZM111.593 27.496C111.397 27.6918 111.28 27.8272 111.243 27.9043H111.301L111.359 27.9627H111.418C111.611 27.846 111.709 27.7502 111.709 27.671C111.709 27.6335 111.67 27.5752 111.593 27.496ZM96.601 27.9627V27.671H96.4844V27.9627H96.601ZM108.759 27.671C108.759 27.671 108.68 27.7502 108.526 27.9043L109.101 27.9627L109.218 27.7877L108.984 27.7293C108.984 27.6918 108.909 27.671 108.759 27.671ZM109.568 27.7877C109.568 27.8668 109.586 27.9252 109.626 27.9627L109.684 28.0793H110.026V27.7877H109.568ZM114.426 27.9627V27.7877H114.193V27.9627H114.426ZM106.326 28.3627L106.268 28.246L106.093 28.3627V28.4793L106.326 28.3627ZM110.609 28.4793C110.686 28.4022 110.686 28.3627 110.609 28.3627L110.493 28.246C110.414 28.3252 110.376 28.3627 110.376 28.3627V28.4793H110.609ZM108.759 28.7127H108.868V28.4793H108.759V28.7127ZM109.568 28.946C109.489 29.0252 109.372 29.1002 109.218 29.171L108.984 29.346H109.568V28.946ZM110.843 29.121C110.764 29.0439 110.57 29.0043 110.259 29.0043C110.259 29.0439 110.286 29.0752 110.343 29.096C110.403 29.1127 110.453 29.1377 110.493 29.171C110.493 29.171 110.57 29.1918 110.726 29.2293H110.784V29.171L110.843 29.121ZM111.709 29.2877C111.67 29.2877 111.63 29.3002 111.593 29.321C111.553 29.3377 111.514 29.346 111.476 29.346L111.593 29.6377L111.826 29.521L111.934 29.4043L111.709 29.2877ZM114.659 29.871C114.659 29.7168 114.561 29.5606 114.368 29.4043V29.9877L114.659 29.871ZM111.993 29.6377C111.843 29.7168 111.768 29.7939 111.768 29.871C111.768 29.9502 111.843 29.9877 111.993 29.9877L112.284 30.046C112.361 29.8522 112.361 29.6585 112.284 29.4627L111.993 29.6377ZM104.593 29.871C104.664 30.0272 104.701 30.1418 104.701 30.2127L104.818 30.5627L105.051 30.446L104.993 30.271L104.934 30.1627V29.9877C104.934 29.9106 104.993 29.871 105.109 29.871H104.593ZM112.343 30.271C112.186 30.2002 112.07 30.1627 111.993 30.1627L111.934 30.446L111.993 30.5043H112.226V30.446H112.343V30.271ZM114.893 30.9127C115.003 30.8752 115.022 30.7377 114.951 30.5043C114.718 30.621 114.543 30.7377 114.426 30.8543L114.893 30.9127ZM115.351 31.0293C115.351 31.0689 115.389 31.1272 115.468 31.2043C115.545 31.2772 115.603 31.3127 115.643 31.3127C115.603 31.1627 115.545 31.0877 115.468 31.0877L115.351 31.0293ZM102.334 40.8627C104.261 40.596 105.889 40.1543 107.218 39.5377C108.551 38.9168 109.584 37.8918 110.318 36.4627C110.934 35.1522 111.243 34.1689 111.243 33.5127C111.243 33.0918 111.164 32.7252 111.009 32.4127V32.3543C110.859 31.9335 110.418 31.6252 109.684 31.4293L108.926 31.371C108.386 31.371 107.828 31.4502 107.251 31.6043L103.201 32.5293L102.334 40.8627ZM113.618 32.296C113.618 32.2252 113.597 32.1689 113.559 32.1293L113.326 32.071V32.296H113.618ZM113.559 32.996C113.676 32.8793 113.734 32.7627 113.734 32.646H113.501L113.268 32.7627C113.189 32.8418 113.17 32.8793 113.209 32.8793L113.559 32.996ZM114.368 32.8793C114.561 32.8793 114.659 32.8022 114.659 32.646H114.368V32.8793ZM118.651 33.4543C118.651 33.571 118.611 33.6293 118.534 33.6293C118.572 33.6689 118.62 33.6877 118.676 33.6877C118.736 33.6877 118.786 33.7085 118.826 33.746L119.168 33.8043C119.168 33.7272 119.186 33.6877 119.226 33.6877C119.264 33.6502 119.284 33.5918 119.284 33.5127C119.284 33.3627 119.209 33.1918 119.059 32.996V33.4543H118.651ZM114.134 33.3377C114.134 33.3772 114.095 33.396 114.018 33.396L114.426 33.5127L114.368 33.396C114.328 33.3585 114.27 33.3377 114.193 33.3377H114.134ZM114.368 33.921H114.426L114.251 33.746L114.193 33.8043L114.368 33.921ZM119.168 33.921H119.059V35.2543H119.168V33.921ZM119.118 36.4627C119.118 36.2752 119.211 36.1022 119.401 35.946C119.211 35.9085 119.118 35.8106 119.118 35.6543C119.151 35.5772 119.13 35.4627 119.059 35.3127V39.421C119.209 39.1877 119.284 38.9543 119.284 38.721L119.226 38.0293C119.186 37.8752 119.168 37.6793 119.168 37.446C119.168 37.296 119.186 37.2022 119.226 37.1627C119.226 37.0085 119.189 36.8127 119.118 36.5793V36.4627ZM113.151 36.3543C113.034 36.0835 112.822 35.946 112.518 35.946L113.151 36.3543ZM113.618 36.8127V36.9877H114.134V36.8127H113.618ZM112.634 37.5627C112.634 37.5252 112.595 37.4689 112.518 37.396C112.401 37.3189 112.303 37.2793 112.226 37.2793L112.109 37.6793L112.634 37.5627ZM98.3427 38.4377C98.3031 38.321 98.226 38.2043 98.1094 38.0877C98.0302 38.0502 97.9927 37.971 97.9927 37.8543C97.9135 37.971 97.7219 38.0689 97.4177 38.146L97.876 38.2627C98.0302 38.3418 98.1094 38.4002 98.1094 38.4377H98.3427ZM111.068 38.4377C111.105 38.4377 111.184 38.4668 111.301 38.521C111.418 38.5772 111.514 38.5856 111.593 38.546C111.67 38.5085 111.728 38.4522 111.768 38.3793V38.0877L111.301 38.0293C111.222 38.0689 111.164 38.1002 111.126 38.121C111.086 38.1377 111.086 38.146 111.126 38.146C111.047 38.146 111.009 38.2043 111.009 38.321L111.068 38.4377ZM97.0677 38.2043C97.0677 38.2439 97.1052 38.3022 97.1844 38.3793L97.301 38.321V38.2627C97.3781 38.1856 97.4177 38.1272 97.4177 38.0877H97.0677V38.2043ZM98.3427 38.9543C98.2635 38.9168 98.1552 38.8502 98.0177 38.7543C97.8844 38.6543 97.7594 38.6043 97.6427 38.6043L97.4177 38.721C97.2614 38.8002 97.1448 38.8772 97.0677 38.9543L97.301 39.0127C97.3781 39.0918 97.4531 39.1293 97.526 39.1293L98.3427 38.9543ZM112.576 38.721L112.459 38.9543L112.693 39.0127L112.809 38.7793L112.576 38.721ZM108.868 39.5293C108.795 39.5293 108.72 39.5606 108.643 39.621C108.564 39.6772 108.526 39.7439 108.526 39.821C108.603 39.9002 108.718 39.9377 108.868 39.9377V40.2293C108.945 40.2293 109.139 40.171 109.451 40.0543C109.295 39.9377 109.101 39.8793 108.868 39.8793V39.7627C108.945 39.6856 108.945 39.6085 108.868 39.5293ZM110.951 39.821L110.843 39.5877L110.493 39.9377H110.951V39.821ZM97.1844 39.7043H97.0677L97.1844 40.1127H97.301L97.1844 39.7043ZM109.909 40.346C110.026 40.1522 110.026 39.9772 109.909 39.821H109.568C109.722 40.1335 109.836 40.3085 109.909 40.346ZM97.1844 40.2293L97.0677 40.4627L97.1844 40.521L97.301 40.2877L97.1844 40.2293ZM98.6844 40.346V40.571H98.976V40.346H98.6844ZM106.326 40.4043V40.6293L106.618 40.571L106.326 40.4043ZM109.451 40.571C109.218 40.6877 109.022 40.8252 108.868 40.9793H109.334L110.259 41.2127L110.201 41.1543L110.143 41.0377V40.9793H109.568L109.451 40.571ZM110.493 41.5543C110.57 41.5543 110.609 41.5377 110.609 41.5043C110.609 41.3877 110.589 41.3106 110.551 41.271L110.376 41.096C110.18 41.3293 110.143 41.5022 110.259 41.6127L110.493 41.5543ZM109.218 42.1377C109.295 42.1377 109.372 42.1772 109.451 42.2543C109.684 42.0606 109.801 41.9043 109.801 41.7877L109.743 41.671L109.684 41.6127C109.645 41.5752 109.605 41.4793 109.568 41.3293L109.451 41.446H109.334L109.218 41.5543V42.1377ZM96.376 41.6127C96.3364 41.6127 96.3177 41.6522 96.3177 41.7293H96.601C96.601 41.6918 96.526 41.596 96.376 41.446V41.6127ZM111.418 42.0793V41.846L110.951 41.9627V42.1377L111.418 42.0793ZM110.376 42.196C110.064 42.196 109.909 42.2752 109.909 42.4293C109.909 42.5418 110.026 42.596 110.259 42.596H110.376V42.196ZM98.1094 42.2543L97.7594 42.371V42.4293L98.226 42.3127L98.1094 42.2543ZM105.518 42.7127C105.518 42.7127 105.593 42.6377 105.743 42.4877L105.518 42.3127C105.361 42.3522 105.284 42.446 105.284 42.596L105.518 42.7127ZM110.609 42.596C110.376 42.7127 110.259 42.8502 110.259 43.0043H110.609C110.764 42.8877 110.764 42.7522 110.609 42.596ZM110.143 43.121C110.143 43.0043 110.064 42.9085 109.909 42.8293C109.836 42.8293 109.761 42.8606 109.684 42.921C109.605 42.9772 109.568 43.0252 109.568 43.0627C109.645 43.1022 109.759 43.121 109.909 43.121H110.143ZM111.593 43.2377C111.593 43.2002 111.553 43.1793 111.476 43.1793C111.476 43.1793 111.464 43.171 111.443 43.1543C111.426 43.1335 111.418 43.121 111.418 43.121L111.301 43.0627H110.893C110.97 43.2189 111.009 43.3752 111.009 43.5293C111.126 43.5689 111.222 43.5689 111.301 43.5293H111.593V43.2377ZM105.284 43.9877H105.051V44.1043H105.284V43.9877ZM110.951 44.3377C111.105 44.3377 111.203 44.3189 111.243 44.2793C111.32 44.2022 111.359 44.1439 111.359 44.1043C111.28 44.0272 111.109 43.9877 110.843 43.9877L110.951 44.3377ZM105.284 44.9127C105.284 44.9918 105.303 45.0293 105.343 45.0293H105.518C105.555 44.8356 105.555 44.7377 105.518 44.7377C105.361 44.7377 105.284 44.796 105.284 44.9127ZM110.893 45.0293C110.703 45.2252 110.609 45.4002 110.609 45.5543L110.726 45.6127H111.126L111.009 45.2627L110.893 45.0293ZM111.184 45.671L111.009 45.896L111.243 45.9543L111.418 45.721L111.184 45.671ZM111.709 46.1877C111.897 46.1877 112.07 46.1293 112.226 46.0127L111.709 45.896C111.63 46.0522 111.63 46.1502 111.709 46.1877ZM110.893 46.0127C110.703 45.896 110.53 45.9168 110.376 46.071C110.453 46.1502 110.589 46.1877 110.784 46.1877C110.855 46.1877 110.893 46.1502 110.893 46.071V46.0127ZM105.634 47.0543L105.518 47.1127L105.576 47.2293H105.693L105.634 47.0543ZM111.826 49.3127C111.826 49.196 111.805 49.1189 111.768 49.0793C111.768 49.0793 111.755 49.0918 111.734 49.1127C111.718 49.1293 111.709 49.1377 111.709 49.1377L111.651 49.196H111.593L111.826 49.3127ZM116.626 51.9127C116.703 51.9127 116.743 51.8585 116.743 51.746H116.451L116.626 51.9127ZM116.918 52.2627H116.626V52.6127C116.743 52.7293 116.895 52.7877 117.084 52.7877C117.011 52.671 116.976 52.5543 116.976 52.4377L116.918 52.2627ZM117.201 53.4793L117.084 53.6543L117.201 53.7127L117.318 53.5377L117.201 53.4793ZM118.076 55.8543C118.076 55.7002 117.959 55.6022 117.726 55.5627C117.609 55.6793 117.551 55.7585 117.551 55.796C117.551 55.9127 117.597 56.0189 117.693 56.1127C117.793 56.2085 117.88 56.2543 117.959 56.2543L118.018 56.0793L118.076 55.8543ZM116.509 56.721C116.586 56.721 116.693 56.7022 116.826 56.6627C116.964 56.6252 117.07 56.5668 117.143 56.4877L116.976 56.4293L116.801 56.3127C116.722 56.2752 116.586 56.2543 116.393 56.2543C116.314 56.2543 116.236 56.2752 116.159 56.3127C116.08 56.3522 116.043 56.4106 116.043 56.4877C116.197 56.6439 116.353 56.721 116.509 56.721ZM96.601 60.0793C96.7948 60.0793 96.9114 60.0022 96.951 59.846H96.7177C96.7177 60.0022 96.6781 60.0793 96.601 60.0793Z" fill="#FF725E"/>
            <path d="M155.743 42.7002C155.676 42.5627 155.485 42.3815 155.168 42.1586C154.851 41.9315 154.693 41.7961 154.693 41.7502C154.693 41.6565 154.639 41.5252 154.535 41.3586C154.435 41.1877 154.339 41.0336 154.251 40.9002C154.068 40.7169 154.189 40.1294 154.618 39.1336C155.051 38.1398 155.628 36.9648 156.351 35.6086C156.489 35.4711 156.664 35.2315 156.876 34.8919C157.093 34.5544 157.235 34.3627 157.301 34.3169C157.301 34.2294 157.335 34.1461 157.401 34.0669C157.468 33.9836 157.547 33.9419 157.643 33.9419L157.91 33.4002C158.003 33.1961 158.445 32.7086 159.235 31.9419C160.028 31.1752 160.651 30.6565 161.101 30.3836C161.528 30.0898 161.993 29.9419 162.493 29.9419C163.037 29.9419 163.501 30.1002 163.885 30.4169L164.801 31.1919C165.478 31.7586 165.862 32.0877 165.951 32.1752L167.21 33.3002L166.635 34.9919C166.428 35.6044 166.326 36.1815 166.326 36.7252C166.326 37.5877 166.562 38.3898 167.035 39.1336C167.151 39.3836 167.303 39.5794 167.493 39.7169C167.687 39.8502 167.943 39.9398 168.26 39.9836C168.76 40.0731 169.01 40.3211 169.01 40.7252C169.01 41.2252 168.918 41.6002 168.735 41.8502C168.551 42.1002 168.337 42.2586 168.093 42.3252C167.73 42.3711 167.48 42.3919 167.343 42.3919C166.687 42.3919 166.087 42.2231 165.543 41.8836C165.003 41.5461 164.528 40.9669 164.118 40.1502C164.028 40.0169 163.91 39.7711 163.76 39.4086C163.614 39.0419 163.53 38.7919 163.51 38.6586C163.353 38.8877 163.093 39.1815 162.726 39.5419C160.397 41.8919 158.512 43.0669 157.068 43.0669C156.568 43.0669 156.126 42.9461 155.743 42.7002ZM157.61 39.8836C157.97 39.9294 158.67 39.5211 159.71 38.6586C159.82 38.5711 159.943 38.4648 160.076 38.3419C160.214 38.2148 160.364 38.0836 160.526 37.9502C161.16 37.4294 161.651 36.9919 162.001 36.6419C162.351 36.2919 162.705 35.8669 163.068 35.3669L163.818 34.1502C163.589 33.6502 163.385 33.3169 163.201 33.1502C163.022 32.9794 162.843 32.8919 162.66 32.8919C162.21 32.8919 161.645 33.2961 160.968 34.1002C160.289 34.9002 159.476 36.1148 158.526 37.7419C158.276 38.1481 158.07 38.5731 157.91 39.0169C157.753 39.4565 157.653 39.7461 157.61 39.8836Z" fill="#FF725E"/>
            <path d="M128.429 43.2505C129.079 44.0172 131.196 41.4588 132.179 42.7172L132.321 42.8922C132.704 43.3838 132.588 43.7588 131.663 44.4838L127.604 47.6672C126.713 48.3588 125.971 47.6005 125.554 48.0505C125.204 48.4338 126.529 50.2172 126.796 50.5588C127.063 50.9005 128.438 52.6422 128.913 52.3338C129.438 52.0005 128.863 51.1755 129.788 50.4505L133.863 47.2588C134.704 46.6005 135.104 46.5422 135.463 46.9088L135.679 47.1755C136.654 48.4255 133.671 49.8672 134.254 50.6838C134.638 51.2338 135.996 50.1922 136.363 49.9088C136.746 49.6088 137.671 48.8505 137.521 48.2922C137.438 47.9505 136.163 46.2338 134.813 44.5088C133.388 42.6922 131.863 40.8672 131.563 40.6922C131.046 40.4088 130.071 41.0922 129.688 41.3922C129.321 41.6755 127.988 42.7505 128.429 43.2505Z" fill="#FFDA32"/>
            <path d="M142.532 58.8985C142.773 58.2985 144.215 54.7401 144.465 54.1151C144.898 53.0485 145.848 53.3568 146.032 52.7735C146.198 52.2151 144.148 51.3735 143.748 51.2151C143.34 51.0485 141.265 50.2651 140.973 50.7235C140.673 51.2235 141.607 51.7318 141.182 52.7818L139.248 57.5651C138.815 58.6151 137.79 58.3235 137.648 58.9318C137.54 59.4485 139.573 60.3235 139.982 60.4902C140.382 60.6485 142.44 61.4735 142.707 60.9818C142.99 60.4152 142.09 59.9901 142.532 58.8985Z" fill="#FFDA32"/>
            <path d="M164.144 58.4848C163.911 57.8764 162.644 54.2181 162.419 53.5848C162.044 52.4764 162.994 52.2098 162.728 51.6348C162.486 51.0931 160.319 51.5514 159.886 51.6431C159.494 51.7264 158.419 51.9931 158.344 52.4681H158.328L157.744 57.6931L154.894 53.1431C154.594 52.8098 153.478 53.0098 153.094 53.0931C152.669 53.1848 150.603 53.6598 150.553 54.2098C150.511 54.8181 151.628 54.7014 151.736 55.8348L152.169 61.0764C152.269 62.1931 151.311 62.4764 151.461 63.0514C151.603 63.5598 152.769 63.3764 153.194 63.2931C153.628 63.2014 154.836 62.9431 154.836 62.3681C154.836 61.7264 153.569 61.9764 153.478 60.8014C153.436 60.3264 153.228 58.0931 153.111 56.6681L156.169 61.5764C156.394 61.9264 156.819 62.1014 157.228 62.0181L157.844 61.8848C158.278 61.7931 158.586 61.4431 158.644 61.0181L159.261 55.1598L160.678 59.2264C161.044 60.3014 160.053 60.6348 160.353 61.1931C160.611 61.6764 162.786 61.2598 163.211 61.1681C163.644 61.0764 165.811 60.6098 165.678 60.0598C165.519 59.4598 164.536 59.6098 164.144 58.4848Z" fill="#FFDA32"/>
            <path d="M173.29 54.506C173.698 54.7226 175.573 52.606 176.223 51.8143L176.231 51.806C176.265 51.7726 179.248 48.131 179.456 47.481C179.598 46.9226 178.99 46.4226 178.623 46.1143C178.256 45.8226 177.498 45.1476 177.09 45.6476C176.59 46.256 178.49 47.556 177.49 48.781L176.398 50.106C176.023 50.506 175.548 50.531 174.715 49.8476L173.206 48.6143L173.223 48.5893C174.223 47.3643 175.19 48.6143 175.69 48.006C176.056 47.556 175.465 47.1893 175.09 46.881L173.781 45.8143C173.406 45.506 172.915 44.981 172.548 45.431C172.048 46.0393 173.481 46.756 172.481 47.981L172.465 48.006L170.706 46.5643C169.823 45.8476 169.806 45.356 170.173 44.881L170.915 43.981C171.915 42.756 173.565 44.356 174.065 43.7476C174.481 43.2393 173.673 42.6476 173.306 42.3476C172.931 42.0476 172.331 41.5393 171.798 41.806C171.256 42.0893 169.556 44.1393 168.698 45.1893C168.515 45.406 168.373 45.581 168.281 45.6893L168.29 45.7143C167.731 46.3976 166.123 48.5226 166.423 48.881C166.823 49.331 167.581 48.581 168.456 49.2976L172.465 52.581C173.34 53.2976 172.765 54.1976 173.29 54.506Z" fill="#FFDA32"/>
            <rect x="123.2" y="68.2" width="67.2" height="9.6" rx="4.8" fill="#FFF1DA"/>
            <rect x="182.4" y="35.4" width="16" height="9.6" rx="4.8" fill="#FFF1DA"/>
            <rect x="52" y="68.2" width="16" height="9.6" rx="4.8" fill="#FFF1DA"/>
            </svg>